PathFileType	4	(X/Y/Z)	Patient4_TMGait_0pt6_01_right_36.trc.trc
DataRate	CameraRate	NumFrames	NumMarkers	Units	OrigDataRate	OrigDataStartFrame	OrigNumFrames
81.395348837209	81.395348837209	4	33	mm	81.395348837209	124	       141
Frame#	Time	Sacral			L.Shoulder			Chest			R.Shoulder			Neck			R.ASIS			L.ASIS			R.Thigh.Superior			R.Thigh.Lateral			R.Thigh.Inferior			R.Patella			L.Thigh.Superior			L.Thigh.Lateral			L.Thigh.Inferior			L.Patella			L.Shank.Superior			L.Shank.Lateral			L.Shank.Inferior			R.Shank.Superior			R.Shank.Lateral			R.Shank.Inferior			R.Heel			R.Midfoot.Superior			R.Midfoot.Lateral			R.Toe			L.Heel			L.Midfoot.Lateral			L.Midfoot.Superior			L.Toe			L.Elbow			L.Wrist			R.Elbow			R.Wrist			
		X1	Y1	Z1	X2	Y2	Z2	X3	Y3	Z3	X4	Y4	Z4	X5	Y5	Z5	X6	Y6	Z6	X7	Y7	Z7	X8	Y8	Z8	X9	Y9	Z9	X10	Y10	Z10	X11	Y11	Z11	X12	Y12	Z12	X13	Y13	Z13	X14	Y14	Z14	X15	Y15	Z15	X16	Y16	Z16	X17	Y17	Z17	X18	Y18	Z18	X19	Y19	Z19	X20	Y20	Z20	X21	Y21	Z21	X22	Y22	Z22	X23	Y23	Z23	X24	Y24	Z24	X25	Y25	Z25	X26	Y26	Z26	X27	Y27	Z27	X28	Y28	Z28	X29	Y29	Z29	X30	Y30	Z30	X31	Y31	Z31	X32	Y32	Z32	X33	Y33	Z33	

124	44.741142857143	737.839864215173	988.465924153500	422.385141407614	912.833349881442	1424.152639132969	258.023399203055	999.276369380009	1359.410624101350	428.822507186272	893.122116070712	1426.891791824880	591.954379119158	876.577594691896	1483.423092088911	409.133706571499	957.231263148263	933.736758020961	560.370922101162	964.548026930421	950.880227533457	284.730615548330	1035.165116712642	754.807344238228	533.881099617050	979.055640780573	630.867668812216	594.196483621400	1072.360197042201	596.251393583392	519.840086121705	1098.823396615058	510.721441550632	530.926497598958	964.398929718827	721.746856869635	314.610026391643	846.886144563661	627.592795706126	251.297354622968	901.214210230055	533.611792794563	320.014930024738	883.685660089079	464.293623853644	330.603119717993	845.247315416662	399.889179318902	322.901322867139	737.941361616888	302.197564722045	269.671006794181	762.722925281063	186.237602311797	346.708290805120	1082.148702520937	419.739904987744	537.412524289079	1023.371950688730	305.099330896734	592.429356817875	1091.670155386108	219.788975448800	539.823024378297	993.236566960406	40.857059806990	501.638933351963	1155.835420396887	107.097198630252	547.332268852188	1073.313681550852	37.861940942437	579.831533988534	1277.777754946812	65.656048330277	581.034503434144	613.854112756228	41.535185544861	387.635118090409	689.448368542590	35.448917839764	309.242286784009	773.503416663235	95.239052834542	336.580625356031	901.457992994697	40.591382686048	311.570991173669	975.315210620204	1084.594641134961	120.125836746206	1228.252820251132	1041.482489116570	141.092949317311	743.835956118641	1120.086640554790	699.858116104283	702.802302216089	864.694034671139	729.558754117488	
125	44.753428571429	739.453495345892	987.536671522167	424.881939292210	912.412212654653	1423.625452235492	260.434930726139	999.497408590538	1359.231794769561	431.058041446952	893.195974388116	1426.015801271735	594.461423756387	876.368273189417	1482.759811044945	411.622217746349	959.304278490471	933.012825966250	562.310476818039	965.901967055709	950.077085758890	286.745917631174	1036.558472816724	752.577413269223	535.623905961731	978.203975310112	629.310867471680	594.727719079514	1071.276799054891	594.166733516610	520.448787726070	1096.010239949497	508.115207901026	530.751588889248	966.299282760566	720.949384120971	316.074873060596	848.504773431043	626.646525438022	253.381538553140	903.498733965486	532.343474645170	321.549406146158	886.069895240004	462.015672241324	331.632606926912	845.371893445221	398.170265168884	324.128610039383	735.664087911873	303.201192844095	270.732387452239	757.966391399439	186.211359204817	346.808027187179	1079.042964112977	417.051520629390	537.218981526544	1019.552462143953	302.775704619483	592.207300331319	1086.631703787881	217.017569995045	538.951354262559	985.530339915664	40.304516215287	500.899422802573	1149.410981212435	104.141230931778	546.121903445258	1065.461434661479	36.978584729596	579.333829484302	1270.703911638414	60.601045304771	580.040113438621	606.574355696246	43.620886146529	387.255974906932	682.202143383172	36.230086962315	309.116281170174	766.884458579112	95.457988712037	336.179088449160	894.198185082304	40.067709108493	311.470051938936	974.597861346954	1083.851075304307	122.482100312460	1227.207330124341	1039.700086032625	144.973668201406	745.899544496853	1117.609563435677	701.036727135209	706.597126577485	861.683648234231	729.724933381629	
126	44.765714285714	740.982776689348	986.982991261863	427.509139658173	912.029786606373	1423.405770502004	262.898905780819	999.825600251946	1359.321058725777	433.318229721343	893.514494489984	1425.466621045437	597.041442467337	876.281497646572	1482.434165599180	414.163002483592	961.285676488071	932.674382465513	564.365317810085	967.095704108958	949.580278365557	288.884211325049	1037.868896753580	750.894437951121	537.297637469188	977.686928723364	628.367940088384	595.459395873051	1070.314125468739	592.664392021441	521.027366985325	1093.427315233641	506.075658186533	530.693877772250	968.473118129656	720.496163387782	317.754821083737	850.816427941632	625.733472360434	255.600814503442	906.841077041916	531.239949050678	323.181357908389	889.614298439184	459.737763541120	332.549965641644	846.413206179857	396.522834689166	325.276138621702	734.093909297365	304.636898988260	271.822838825035	753.725030362652	186.550718706219	346.786805964793	1076.122611087677	414.928128696187	537.142863213816	1015.986360646289	301.070852314782	592.306033303333	1081.603004100901	214.781624683641	538.253048718779	977.712543459815	40.054546451272	500.447551699175	1142.793363617475	101.788976629665	545.195669076478	1057.569362319872	36.437137130080	579.041932973021	1263.514771474461	56.369440656622	579.165027637125	599.478556639162	46.649110643500	386.812063669585	675.050237842453	37.473435819721	308.946843021637	760.599624847895	95.805749935433	335.627477074833	886.935940784178	39.557408313293	311.368618228811	973.564962183135	1083.257412360312	125.032248985325	1225.695590290583	1036.931850927371	148.857951301923	748.965281891375	1114.959287618847	702.268129386907	711.942393424923	858.372681223332	729.835989186573	
127	44.778000000000	742.389929873344	986.828976871554	430.244568037175	911.717111936158	1423.533791449376	265.401969696504	1000.249112247595	1359.689117819271	435.594997058062	894.076401410251	1425.290326762451	599.665376135269	876.312898531797	1482.471244608109	416.735234908619	963.119277188275	932.754539379123	566.542902863704	968.096821558581	949.446532024675	291.143805608475	1039.043955242158	749.808733226447	538.908845534194	977.455044393804	628.023827338002	596.408518540463	1069.425231364419	591.721834166783	521.620549536152	1091.010478382014	504.597905440098	530.794068058502	970.911867778315	720.432576380492	319.661721310398	853.913424726704	624.861480011226	257.901780825492	911.365261835142	530.339233382491	324.857889115056	894.432667199769	457.510610992184	333.280023311053	848.512008540622	394.988232686818	326.269891507266	733.376926449743	306.578808366549	272.908251141542	750.144493467335	187.343100716505	346.607419531039	1073.333053989708	413.371401222493	537.216773257256	1012.618384717303	299.970378814639	592.706419763925	1076.598248589825	213.097994066275	537.755365158877	969.956052700771	40.026971691663	500.241962185534	1136.069048109737	100.070604573543	544.573178309388	1049.790894813239	36.174654147231	578.928182302636	1256.319214639307	53.099111821555	578.472103944527	592.686019753911	50.822871695436	386.300766936385	668.062294364064	39.326279744177	308.729791358515	754.752728037574	96.321332284883	334.917710608825	879.678228748981	39.073751785181	311.282099751897	972.192079149503	1082.861084040297	127.794813456844	1223.663490894714	1033.209332019642	152.727081362485	752.989333804647	1112.256012472009	703.581822481311	718.874657159629	854.893295837516	729.916164475083	
